<?xml version="1.0" encoding="UTF-8" standalone="no"?>
<!-- Created with Inkscape (http://www.inkscape.org/) -->

<svg
   width="128mm"
   height="256mm"
   viewBox="0 0 128 256"
   version="1.1"
   id="svg5"
   xml:space="preserve"
   inkscape:version="1.2.2 (b0a8486541, 2022-12-01)"
   sodipodi:docname="logo.svg"
   xmlns:inkscape="http://www.inkscape.org/namespaces/inkscape"
   xmlns:sodipodi="http://sodipodi.sourceforge.net/DTD/sodipodi-0.dtd"
   xmlns="http://www.w3.org/2000/svg"
   xmlns:svg="http://www.w3.org/2000/svg"><sodipodi:namedview
     id="namedview7"
     pagecolor="#ffffff"
     bordercolor="#666666"
     borderopacity="1.0"
     inkscape:showpageshadow="2"
     inkscape:pageopacity="0.0"
     inkscape:pagecheckerboard="0"
     inkscape:deskcolor="#d1d1d1"
     inkscape:document-units="mm"
     showgrid="false"
     inkscape:zoom="0.5"
     inkscape:cx="97"
     inkscape:cy="621"
     inkscape:window-width="1858"
     inkscape:window-height="1009"
     inkscape:window-x="0"
     inkscape:window-y="0"
     inkscape:window-maximized="1"
     inkscape:current-layer="layer1" /><defs
     id="defs2" /><g
     inkscape:label="Camada 1"
     inkscape:groupmode="layer"
     id="layer1"><g
       id="g1691"
       transform="matrix(1.9207177,0,0,1.9207177,-136.13449,-149.07807)"
       style="stroke:#ffffff;stroke-width:6.20698212;stroke-dasharray:none;paint-order:markers stroke fill;stroke-linejoin:round;stroke-linecap:round"><path
         id="path2558"
         style="fill:#012a2c;fill-opacity:1;stroke:#ffffff;stroke-width:6.20698212;stroke-linecap:round;stroke-linejoin:round;stroke-opacity:1;stroke-dasharray:none;paint-order:markers stroke fill"
         d="M 102.86208,81.975912 73.38295,108.66233 v 81.56123 l 29.47913,-26.55394 -14.910519,-0.0195 v -0.49476 c 0,-0.42408 0.03601,-0.50207 0.24925,-0.54671 0.280788,-0.0587 4.006248,-0.39471 4.37716,-0.39471 0.200979,0 0.24091,-0.0636 0.24091,-0.38731 v -0.3873 h 1.362999 c 4.673666,0 7.92423,-1.05386 7.92781,-2.57125 l 9.5e-4,-0.30486 h -0.94047 -0.93955 v -0.77371 -0.77461 h -1.388021 -1.38709 l 0.03245,-0.91267 0.03245,-0.91272 2.362778,-0.0294 2.362783,-0.0299 -0.2891,-0.227 c -0.37163,-0.29233 -0.36579,-0.5941 0.0195,-0.97937 l 0.30855,-0.30765 -0.54761,-0.59577 c -0.72149,-0.78457 -0.99952,-1.41279 -0.99885,-2.25529 4.7e-4,-0.81731 0.34974,-1.54667 1.08224,-2.25899 l 0.50314,-0.48926 -0.27242,-0.252 c -0.35183,-0.32606 -0.34517,-0.64895 0.0204,-0.98777 0.21286,-0.19716 0.24466,-0.27146 0.11768,-0.27146 -0.30998,0 -0.31844,-0.40889 -0.0352,-1.68268 0.4889,-2.19869 0.65566,-3.44216 0.70791,-6.35076 v -6.68251 c -0.0211,-1.15427 -0.0635,-1.66928 -0.18162,-1.70676 -0.11244,-0.0357 -0.26457,-0.19703 -0.3382,-0.35858 -0.11495,-0.2523 -0.10148,-0.33658 0.0936,-0.60043 0.18913,-0.25585 0.20073,-0.32213 0.0695,-0.39565 -0.22327,-0.12495 -0.50328,-0.70088 -0.50406,-1.03591 l -9.4e-4,-0.28261 -1.3,9.5e-4 c -0.797722,9.5e-4 -1.677888,-0.0729 -2.278456,-0.1918 -2.064418,-0.40864 -4.67089,-1.43671 -6.843715,-2.6982 -1.98883,-1.15465 -2.067815,-1.1874 -2.74175,-1.17305 -0.805271,0.0177 -1.344512,0.26592 -2.143179,0.98866 -0.36325,0.32873 -0.726149,0.59764 -0.80705,0.59764 -0.0809,0 -0.147323,0.0245 -0.147323,0.0537 0,0.0648 0.529881,1.94645 3.722993,13.22045 2.81312,9.93236 2.634406,8.90527 1.826289,10.45184 -0.615773,1.17843 -1.748552,2.24974 -3.030841,2.86775 -1.26678,0.61057 -2.084983,0.77552 -3.487644,0.70327 -1.691139,-0.0872 -3.03975,-0.65037 -4.328054,-1.80869 -0.695942,-0.6257 -1.554005,-1.89578 -1.823512,-2.70005 l -0.203849,-0.60876 2.16727,-7.74344 c 1.191544,-4.25886 2.585821,-9.23555 3.098482,-11.05965 l 0.932141,-3.31716 -0.255739,-0.25481 c -0.140283,-0.14028 -0.286301,-0.38231 -0.325226,-0.53741 -0.0874,-0.34821 0.222815,-1.00844 0.582816,-1.24069 0.255986,-0.16516 0.256982,-0.16427 0.182538,0.23257 -0.095,0.50632 0.01983,0.72296 0.238129,0.44846 0.148642,-0.18611 0.168098,-0.18743 0.289095,-0.013 0.117009,0.16878 0.197117,0.13846 0.827436,-0.31133 1.203489,-0.8588 1.821302,-1.08849 2.906678,-1.08132 0.75485,0.005 1.09253,0.0661 1.714171,0.31041 2.55388,1.00371 5.240646,1.78093 7.339435,2.12372 1.314254,0.21463 3.028945,0.24022 3.586785,0.0537 l 0.41697,-0.13899 -0.2789,-0.33079 c -0.33654,-0.39996 -0.33884,-0.42952 -0.0528,-0.79315 0.21086,-0.26806 0.21487,-0.31002 0.0556,-0.61803 -0.36081,-0.69772 -0.17901,-1.44665 0.58559,-2.41003 l 0.43735,-0.55039 z m -0.026,38.613348 c -0.008,-0.002 -0.0177,-1.6e-4 -0.0297,0.005 -0.0573,0.0275 -0.16143,0.15141 -0.30021,0.38823 -0.32815,0.56008 -0.47834,1.27206 -0.33635,1.59558 0.0639,0.14543 0.10836,0.0504 0.16493,-0.35581 0.0425,-0.30548 0.18701,-0.77039 0.3206,-1.03221 0.18712,-0.36674 0.23543,-0.58352 0.18068,-0.60135 z m -17.832022,4.78856 c -0.05214,2.1e-4 -0.238637,0.53499 -0.415108,1.1888 -0.17647,0.65383 -1.508107,5.36049 -2.958569,10.45831 -1.450457,5.0978 -2.668032,9.39125 -2.705614,9.54097 l -0.06764,0.27151 h 3.053075 3.054006 v -10.55469 c 0,-5.80531 0.03069,-10.63442 0.06764,-10.73071 0.03696,-0.0963 0.02434,-0.17443 -0.0278,-0.17419 z m 0.446608,0.009 c -0.02396,-0.0253 -0.04355,4.79029 -0.04355,10.70199 v 10.74925 h 3.041961 c 1.673121,0 3.041961,-0.0237 3.041961,-0.0519 0,-0.0441 -2.484526,-8.89497 -5.20182,-18.53255 -0.437424,-1.55145 -0.814598,-2.84155 -0.838556,-2.86684 z m -6.03203,22.22495 0.07691,0.24926 c 0.204071,0.66156 0.843028,1.52432 1.529783,2.06628 0.663109,0.52328 0.624066,0.40591 -0.116748,-0.3521 -0.873732,-0.89403 -1.002653,-1.13711 -0.749603,-1.41678 0.19233,-0.21248 0.49754,-0.29697 1.597419,-0.43916 0.466358,-0.0602 0.264716,-0.0819 -0.864496,-0.0927 z m 22.619654,1.25733 c -0.0449,0.0128 -0.15077,0.13496 -0.30855,0.3734 -0.39566,0.59785 -0.5236,1.09584 -0.44105,1.72253 0.0386,0.29286 0.0851,0.51768 0.10285,0.49846 0.0178,-0.019 0.0888,-0.40068 0.15752,-0.84781 0.0687,-0.44708 0.22213,-1.01595 0.34191,-1.26383 0.1436,-0.29726 0.19347,-0.46069 0.16215,-0.48185 -0.004,-0.005 -0.008,-0.005 -0.0148,0 z" /><path
         id="path2715"
         style="fill:#cab48f;fill-opacity:1;stroke:#ffffff;stroke-width:6.20698212;stroke-linecap:round;stroke-linejoin:round;stroke-opacity:1;stroke-dasharray:none;paint-order:markers stroke fill"
         d="M 105.5334,98.292051 V 119.8063 l 0.43735,0.55131 c 0.7646,0.96339 0.9464,1.71138 0.5856,2.40911 -0.15928,0.30801 -0.15527,0.34997 0.0556,0.61802 0.28603,0.36363 0.28372,0.3932 -0.0528,0.79316 l -0.2789,0.33172 0.41696,0.13898 c 0.55785,0.18648 2.27254,0.15996 3.58679,-0.0547 2.09879,-0.34279 4.78556,-1.12001 7.33944,-2.12372 0.62165,-0.24432 0.95932,-0.30556 1.71417,-0.3104 1.08536,-0.007 1.70319,0.22345 2.90668,1.08224 0.63033,0.44979 0.71044,0.48011 0.82744,0.31133 0.12102,-0.17446 0.14039,-0.17407 0.28909,0.0121 0.2183,0.2745 0.33312,0.0588 0.23813,-0.44753 -0.0744,-0.39684 -0.0734,-0.39866 0.18254,-0.2335 0.35998,0.23225 0.67021,0.89341 0.58281,1.24161 -0.0389,0.1551 -0.18494,0.39714 -0.32522,0.53742 l -0.25574,0.25481 0.93306,3.31623 c 0.51265,1.8241 1.90696,6.80169 3.09849,11.06055 l 2.16634,7.74344 -0.20385,0.60786 c -0.26951,0.80427 -1.12755,2.07431 -1.82351,2.70005 -1.2883,1.15827 -2.63691,1.72244 -4.32805,1.80959 -1.40266,0.0722 -2.22086,-0.0927 -3.48765,-0.70327 -1.28227,-0.61801 -2.41412,-1.69027 -3.02991,-2.8687 -0.8081,-1.54652 -0.98776,-0.51948 1.82536,-10.45179 3.19312,-11.274 3.723,-13.15561 3.723,-13.22045 0,-0.0292 -0.0663,-0.0528 -0.14733,-0.0528 -0.0809,0 -0.4438,-0.26891 -0.80705,-0.59764 -0.79867,-0.72274 -1.33791,-0.97189 -2.14318,-0.98959 -0.67393,-0.0143 -0.75291,0.0194 -2.74175,1.17398 -2.17282,1.26149 -4.77929,2.28864 -6.84371,2.69727 -0.60056,0.11888 -1.48073,0.19363 -2.27846,0.19273 l -1.29999,-0.002 -9.5e-4,0.28353 c -9.5e-4,0.33503 -0.28078,0.91003 -0.50406,1.03499 -0.13124,0.0735 -0.11963,0.1398 0.0695,0.39565 0.19506,0.26385 0.20854,0.34906 0.0936,0.60135 -0.0736,0.16156 -0.22575,0.32289 -0.3382,0.35859 -0.11816,0.0375 -0.16057,0.55249 -0.18161,1.70676 v 6.68155 c 0.0522,2.9086 0.219,4.15207 0.7079,6.35076 0.28324,1.27384 0.27478,1.68363 -0.0352,1.68363 -0.12698,0 -0.0952,0.0743 0.11768,0.27146 0.36556,0.33882 0.37222,0.66075 0.0204,0.98682 l -0.27241,0.25295 0.50313,0.48831 c 0.73251,0.71233 1.08251,1.44168 1.08317,2.25899 4.7e-4,0.8425 -0.27828,1.47076 -0.99978,2.25529 l -0.54761,0.59581 0.30855,0.30856 c 0.38526,0.38522 0.3911,0.68614 0.0194,0.97847 l -0.28816,0.227 2.36185,0.0294 2.36277,0.0304 0.0325,0.91272 0.0324,0.91266 h -1.38709 -1.38801 v 0.77372 0.77461 h -0.93956 -0.94047 l 9.5e-4,0.30391 c 0.004,1.51739 3.25415,2.57219 7.92781,2.57219 h 1.363 v 0.38731 c 0,0.32369 0.0399,0.38731 0.24091,0.38731 0.37091,0 4.09639,0.33503 4.37716,0.3938 0.21327,0.0446 0.24925,0.12354 0.24925,0.54762 v 0.49476 l -14.91052,0.0195 v 16.3912 l 29.47913,26.55393 V 124.9794 Z m 0.0259,22.222149 c -0.0547,0.0178 -0.006,0.23462 0.18069,0.60135 0.13358,0.26183 0.27805,0.72581 0.32059,1.03129 0.0566,0.40625 0.1011,0.50216 0.16494,0.35673 0.14199,-0.32352 -0.008,-1.0355 -0.33635,-1.59557 -0.1388,-0.23682 -0.24286,-0.36169 -0.30022,-0.38916 -0.012,-0.006 -0.0218,-0.007 -0.0297,-0.005 z m 17.83202,4.78856 c -0.0522,-2.3e-4 -0.0647,0.0779 -0.0278,0.1742 0.037,0.0963 0.0667,4.92446 0.0667,10.7298 v 10.5556 h 3.05494 3.05308 l -0.0676,-0.27241 c -0.0377,-0.14972 -1.25515,-4.44322 -2.70561,-9.54102 -1.45047,-5.0978 -2.7821,-9.80353 -2.95857,-10.45736 -0.17644,-0.65381 -0.36297,-1.18859 -0.41511,-1.18881 z m -0.4466,0.008 c -0.024,0.0253 -0.40115,1.3154 -0.83856,2.86684 -2.7173,9.63758 -5.20181,18.48957 -5.20181,18.53346 0,0.028 1.36881,0.051 3.04195,0.051 h 3.04196 v -10.7484 c 0,-5.91169 -0.0195,-10.72825 -0.0435,-10.70289 z m 6.03203,22.22586 -1.47326,0.0138 c -1.12921,0.0109 -1.33085,0.0332 -0.8645,0.0936 1.09988,0.14218 1.40508,0.22573 1.59742,0.43826 0.25305,0.27962 0.12406,0.52365 -0.7496,1.41768 -0.74081,0.75801 -0.77984,0.87538 -0.11675,0.35205 0.68675,-0.54191 1.32571,-1.40562 1.52978,-2.06718 z m -22.61966,1.25638 c -0.006,0 -0.0109,0 -0.0148,0 -0.0313,0.0214 0.0186,0.18549 0.16215,0.48275 0.11978,0.24788 0.27321,0.8158 0.34191,1.26293 0.0687,0.44708 0.13971,0.82869 0.15752,0.84781 0.0177,0.019 0.0643,-0.2047 0.10285,-0.49756 0.0825,-0.62669 -0.0454,-1.12558 -0.44106,-1.72348 -0.15777,-0.23839 -0.26361,-0.36064 -0.30855,-0.3734 z" /></g><g
       id="g4061"
       transform="matrix(1.9207177,0,0,1.9207177,-136.13449,-149.07807)"
       style="stroke:none;stroke-width:1.42698;stroke-linecap:round;stroke-linejoin:round;stroke-dasharray:none;paint-order:markers stroke fill"><path
         id="path4057"
         style="fill:#012a2c;fill-opacity:1;stroke:none;stroke-width:1.42698;stroke-linecap:round;stroke-linejoin:round;stroke-dasharray:none;stroke-opacity:1;paint-order:markers stroke fill"
         d="M 102.86208,81.975912 73.38295,108.66233 v 81.56123 l 29.47913,-26.55394 -14.910519,-0.0195 v -0.49476 c 0,-0.42408 0.03601,-0.50207 0.24925,-0.54671 0.280788,-0.0587 4.006248,-0.39471 4.37716,-0.39471 0.200979,0 0.24091,-0.0636 0.24091,-0.38731 v -0.3873 h 1.362999 c 4.673666,0 7.92423,-1.05386 7.92781,-2.57125 l 9.5e-4,-0.30486 h -0.94047 -0.93955 v -0.77371 -0.77461 h -1.388021 -1.38709 l 0.03245,-0.91267 0.03245,-0.91272 2.362778,-0.0294 2.362783,-0.0299 -0.2891,-0.227 c -0.37163,-0.29233 -0.36579,-0.5941 0.0195,-0.97937 l 0.30855,-0.30765 -0.54761,-0.59577 c -0.72149,-0.78457 -0.99952,-1.41279 -0.99885,-2.25529 4.7e-4,-0.81731 0.34974,-1.54667 1.08224,-2.25899 l 0.50314,-0.48926 -0.27242,-0.252 c -0.35183,-0.32606 -0.34517,-0.64895 0.0204,-0.98777 0.21286,-0.19716 0.24466,-0.27146 0.11768,-0.27146 -0.30998,0 -0.31844,-0.40889 -0.0352,-1.68268 0.4889,-2.19869 0.65566,-3.44216 0.70791,-6.35076 v -6.68251 c -0.0211,-1.15427 -0.0635,-1.66928 -0.18162,-1.70676 -0.11244,-0.0357 -0.26457,-0.19703 -0.3382,-0.35858 -0.11495,-0.2523 -0.10148,-0.33658 0.0936,-0.60043 0.18913,-0.25585 0.20073,-0.32213 0.0695,-0.39565 -0.22327,-0.12495 -0.50328,-0.70088 -0.50406,-1.03591 l -9.4e-4,-0.28261 -1.3,9.5e-4 c -0.797722,9.5e-4 -1.677888,-0.0729 -2.278456,-0.1918 -2.064418,-0.40864 -4.67089,-1.43671 -6.843715,-2.6982 -1.98883,-1.15465 -2.067815,-1.1874 -2.74175,-1.17305 -0.805271,0.0177 -1.344512,0.26592 -2.143179,0.98866 -0.36325,0.32873 -0.726149,0.59764 -0.80705,0.59764 -0.0809,0 -0.147323,0.0245 -0.147323,0.0537 0,0.0648 0.529881,1.94645 3.722993,13.22045 2.81312,9.93236 2.634406,8.90527 1.826289,10.45184 -0.615773,1.17843 -1.748552,2.24974 -3.030841,2.86775 -1.26678,0.61057 -2.084983,0.77552 -3.487644,0.70327 -1.691139,-0.0872 -3.03975,-0.65037 -4.328054,-1.80869 -0.695942,-0.6257 -1.554005,-1.89578 -1.823512,-2.70005 l -0.203849,-0.60876 2.16727,-7.74344 c 1.191544,-4.25886 2.585821,-9.23555 3.098482,-11.05965 l 0.932141,-3.31716 -0.255739,-0.25481 c -0.140283,-0.14028 -0.286301,-0.38231 -0.325226,-0.53741 -0.0874,-0.34821 0.222815,-1.00844 0.582816,-1.24069 0.255986,-0.16516 0.256982,-0.16427 0.182538,0.23257 -0.095,0.50632 0.01983,0.72296 0.238129,0.44846 0.148642,-0.18611 0.168098,-0.18743 0.289095,-0.013 0.117009,0.16878 0.197117,0.13846 0.827436,-0.31133 1.203489,-0.8588 1.821302,-1.08849 2.906678,-1.08132 0.75485,0.005 1.09253,0.0661 1.714171,0.31041 2.55388,1.00371 5.240646,1.78093 7.339435,2.12372 1.314254,0.21463 3.028945,0.24022 3.586785,0.0537 l 0.41697,-0.13899 -0.2789,-0.33079 c -0.33654,-0.39996 -0.33884,-0.42952 -0.0528,-0.79315 0.21086,-0.26806 0.21487,-0.31002 0.0556,-0.61803 -0.36081,-0.69772 -0.17901,-1.44665 0.58559,-2.41003 l 0.43735,-0.55039 z m -0.026,38.613348 c -0.008,-0.002 -0.0177,-1.6e-4 -0.0297,0.005 -0.0573,0.0275 -0.16143,0.15141 -0.30021,0.38823 -0.32815,0.56008 -0.47834,1.27206 -0.33635,1.59558 0.0639,0.14543 0.10836,0.0504 0.16493,-0.35581 0.0425,-0.30548 0.18701,-0.77039 0.3206,-1.03221 0.18712,-0.36674 0.23543,-0.58352 0.18068,-0.60135 z m -17.832022,4.78856 c -0.05214,2.1e-4 -0.238637,0.53499 -0.415108,1.1888 -0.17647,0.65383 -1.508107,5.36049 -2.958569,10.45831 -1.450457,5.0978 -2.668032,9.39125 -2.705614,9.54097 l -0.06764,0.27151 h 3.053075 3.054006 v -10.55469 c 0,-5.80531 0.03069,-10.63442 0.06764,-10.73071 0.03696,-0.0963 0.02434,-0.17443 -0.0278,-0.17419 z m 0.446608,0.009 c -0.02396,-0.0253 -0.04355,4.79029 -0.04355,10.70199 v 10.74925 h 3.041961 c 1.673121,0 3.041961,-0.0237 3.041961,-0.0519 0,-0.0441 -2.484526,-8.89497 -5.20182,-18.53255 -0.437424,-1.55145 -0.814598,-2.84155 -0.838556,-2.86684 z m -6.03203,22.22495 0.07691,0.24926 c 0.204071,0.66156 0.843028,1.52432 1.529783,2.06628 0.663109,0.52328 0.624066,0.40591 -0.116748,-0.3521 -0.873732,-0.89403 -1.002653,-1.13711 -0.749603,-1.41678 0.19233,-0.21248 0.49754,-0.29697 1.597419,-0.43916 0.466358,-0.0602 0.264716,-0.0819 -0.864496,-0.0927 z m 22.619654,1.25733 c -0.0449,0.0128 -0.15077,0.13496 -0.30855,0.3734 -0.39566,0.59785 -0.5236,1.09584 -0.44105,1.72253 0.0386,0.29286 0.0851,0.51768 0.10285,0.49846 0.0178,-0.019 0.0888,-0.40068 0.15752,-0.84781 0.0687,-0.44708 0.22213,-1.01595 0.34191,-1.26383 0.1436,-0.29726 0.19347,-0.46069 0.16215,-0.48185 -0.004,-0.005 -0.008,-0.005 -0.0148,0 z" /><path
         id="path4059"
         style="fill:#cab48f;fill-opacity:1;stroke:none;stroke-width:1.42698;stroke-linecap:round;stroke-linejoin:round;stroke-dasharray:none;stroke-opacity:1;paint-order:markers stroke fill"
         d="M 105.5334,98.292051 V 119.8063 l 0.43735,0.55131 c 0.7646,0.96339 0.9464,1.71138 0.5856,2.40911 -0.15928,0.30801 -0.15527,0.34997 0.0556,0.61802 0.28603,0.36363 0.28372,0.3932 -0.0528,0.79316 l -0.2789,0.33172 0.41696,0.13898 c 0.55785,0.18648 2.27254,0.15996 3.58679,-0.0547 2.09879,-0.34279 4.78556,-1.12001 7.33944,-2.12372 0.62165,-0.24432 0.95932,-0.30556 1.71417,-0.3104 1.08536,-0.007 1.70319,0.22345 2.90668,1.08224 0.63033,0.44979 0.71044,0.48011 0.82744,0.31133 0.12102,-0.17446 0.14039,-0.17407 0.28909,0.0121 0.2183,0.2745 0.33312,0.0588 0.23813,-0.44753 -0.0744,-0.39684 -0.0734,-0.39866 0.18254,-0.2335 0.35998,0.23225 0.67021,0.89341 0.58281,1.24161 -0.0389,0.1551 -0.18494,0.39714 -0.32522,0.53742 l -0.25574,0.25481 0.93306,3.31623 c 0.51265,1.8241 1.90696,6.80169 3.09849,11.06055 l 2.16634,7.74344 -0.20385,0.60786 c -0.26951,0.80427 -1.12755,2.07431 -1.82351,2.70005 -1.2883,1.15827 -2.63691,1.72244 -4.32805,1.80959 -1.40266,0.0722 -2.22086,-0.0927 -3.48765,-0.70327 -1.28227,-0.61801 -2.41412,-1.69027 -3.02991,-2.8687 -0.8081,-1.54652 -0.98776,-0.51948 1.82536,-10.45179 3.19312,-11.274 3.723,-13.15561 3.723,-13.22045 0,-0.0292 -0.0663,-0.0528 -0.14733,-0.0528 -0.0809,0 -0.4438,-0.26891 -0.80705,-0.59764 -0.79867,-0.72274 -1.33791,-0.97189 -2.14318,-0.98959 -0.67393,-0.0143 -0.75291,0.0194 -2.74175,1.17398 -2.17282,1.26149 -4.77929,2.28864 -6.84371,2.69727 -0.60056,0.11888 -1.48073,0.19363 -2.27846,0.19273 l -1.29999,-0.002 -9.5e-4,0.28353 c -9.5e-4,0.33503 -0.28078,0.91003 -0.50406,1.03499 -0.13124,0.0735 -0.11963,0.1398 0.0695,0.39565 0.19506,0.26385 0.20854,0.34906 0.0936,0.60135 -0.0736,0.16156 -0.22575,0.32289 -0.3382,0.35859 -0.11816,0.0375 -0.16057,0.55249 -0.18161,1.70676 v 6.68155 c 0.0522,2.9086 0.219,4.15207 0.7079,6.35076 0.28324,1.27384 0.27478,1.68363 -0.0352,1.68363 -0.12698,0 -0.0952,0.0743 0.11768,0.27146 0.36556,0.33882 0.37222,0.66075 0.0204,0.98682 l -0.27241,0.25295 0.50313,0.48831 c 0.73251,0.71233 1.08251,1.44168 1.08317,2.25899 4.7e-4,0.8425 -0.27828,1.47076 -0.99978,2.25529 l -0.54761,0.59581 0.30855,0.30856 c 0.38526,0.38522 0.3911,0.68614 0.0194,0.97847 l -0.28816,0.227 2.36185,0.0294 2.36277,0.0304 0.0325,0.91272 0.0324,0.91266 h -1.38709 -1.38801 v 0.77372 0.77461 h -0.93956 -0.94047 l 9.5e-4,0.30391 c 0.004,1.51739 3.25415,2.57219 7.92781,2.57219 h 1.363 v 0.38731 c 0,0.32369 0.0399,0.38731 0.24091,0.38731 0.37091,0 4.09639,0.33503 4.37716,0.3938 0.21327,0.0446 0.24925,0.12354 0.24925,0.54762 v 0.49476 l -14.91052,0.0195 v 16.3912 l 29.47913,26.55393 V 124.9794 Z m 0.0259,22.222149 c -0.0547,0.0178 -0.006,0.23462 0.18069,0.60135 0.13358,0.26183 0.27805,0.72581 0.32059,1.03129 0.0566,0.40625 0.1011,0.50216 0.16494,0.35673 0.14199,-0.32352 -0.008,-1.0355 -0.33635,-1.59557 -0.1388,-0.23682 -0.24286,-0.36169 -0.30022,-0.38916 -0.012,-0.006 -0.0218,-0.007 -0.0297,-0.005 z m 17.83202,4.78856 c -0.0522,-2.3e-4 -0.0647,0.0779 -0.0278,0.1742 0.037,0.0963 0.0667,4.92446 0.0667,10.7298 v 10.5556 h 3.05494 3.05308 l -0.0676,-0.27241 c -0.0377,-0.14972 -1.25515,-4.44322 -2.70561,-9.54102 -1.45047,-5.0978 -2.7821,-9.80353 -2.95857,-10.45736 -0.17644,-0.65381 -0.36297,-1.18859 -0.41511,-1.18881 z m -0.4466,0.008 c -0.024,0.0253 -0.40115,1.3154 -0.83856,2.86684 -2.7173,9.63758 -5.20181,18.48957 -5.20181,18.53346 0,0.028 1.36881,0.051 3.04195,0.051 h 3.04196 v -10.7484 c 0,-5.91169 -0.0195,-10.72825 -0.0435,-10.70289 z m 6.03203,22.22586 -1.47326,0.0138 c -1.12921,0.0109 -1.33085,0.0332 -0.8645,0.0936 1.09988,0.14218 1.40508,0.22573 1.59742,0.43826 0.25305,0.27962 0.12406,0.52365 -0.7496,1.41768 -0.74081,0.75801 -0.77984,0.87538 -0.11675,0.35205 0.68675,-0.54191 1.32571,-1.40562 1.52978,-2.06718 z m -22.61966,1.25638 c -0.006,0 -0.0109,0 -0.0148,0 -0.0313,0.0214 0.0186,0.18549 0.16215,0.48275 0.11978,0.24788 0.27321,0.8158 0.34191,1.26293 0.0687,0.44708 0.13971,0.82869 0.15752,0.84781 0.0177,0.019 0.0643,-0.2047 0.10285,-0.49756 0.0825,-0.62669 -0.0454,-1.12558 -0.44106,-1.72348 -0.15777,-0.23839 -0.26361,-0.36064 -0.30855,-0.3734 z" /></g></g></svg>
